<?xml version="1.0" encoding="UTF-8" standalone="no"?>
<!-- Created with Inkscape (http://www.inkscape.org/) -->

<svg
   width="149.28391mm"
   height="34.751709mm"
   viewBox="0 0 149.28391 34.751709"
   version="1.1"
   id="svg5"
   sodipodi:docname="logo.svg"
   inkscape:version="1.4 (e7c3feb1, 2024-10-09)"
   xmlns:inkscape="http://www.inkscape.org/namespaces/inkscape"
   xmlns:sodipodi="http://sodipodi.sourceforge.net/DTD/sodipodi-0.dtd"
   xmlns:xlink="http://www.w3.org/1999/xlink"
   xmlns="http://www.w3.org/2000/svg"
   xmlns:svg="http://www.w3.org/2000/svg">
  <sodipodi:namedview
     id="namedview1"
     pagecolor="#ffffff"
     bordercolor="#000000"
     borderopacity="0.25"
     inkscape:showpageshadow="2"
     inkscape:pageopacity="0.0"
     inkscape:pagecheckerboard="0"
     inkscape:deskcolor="#d1d1d1"
     inkscape:document-units="mm"
     inkscape:zoom="1.8716016"
     inkscape:cx="282.11132"
     inkscape:cy="65.719114"
     inkscape:window-width="2560"
     inkscape:window-height="1307"
     inkscape:window-x="0"
     inkscape:window-y="30"
     inkscape:window-maximized="1"
     inkscape:current-layer="g6952" />
  <defs
     id="defs2">
    <rect
       x="563.29095"
       y="366.95154"
       width="58.224785"
       height="43.330334"
       id="rect3378" />
    <rect
       x="656.8233"
       y="428.71786"
       width="54.575699"
       height="41.484116"
       id="rect2594" />
    <rect
       x="281.01697"
       y="436.60559"
       width="262.34634"
       height="102.44912"
       id="rect2538" />
    <linearGradient
       id="linearGradient1690">
      <stop
         style="stop-color:#decb80;stop-opacity:1;"
         offset="0"
         id="stop1686" />
      <stop
         style="stop-color:#45980f;stop-opacity:1;"
         offset="1"
         id="stop1688" />
    </linearGradient>
    <linearGradient
       id="linearGradient1684">
      <stop
         style="stop-color:#406f00;stop-opacity:1;"
         offset="0"
         id="stop1680" />
      <stop
         style="stop-color:#decb80;stop-opacity:1;"
         offset="1"
         id="stop1682" />
    </linearGradient>
    <pattern
       id="EMFhbasepattern"
       patternUnits="userSpaceOnUse"
       width="6"
       height="6"
       x="0"
       y="0" />
    <rect
       x="281.01697"
       y="436.60559"
       width="262.34634"
       height="102.44912"
       id="rect2538-3" />
    <rect
       x="281.01697"
       y="436.60559"
       width="262.34634"
       height="102.44912"
       id="rect2538-3-2" />
    <rect
       x="281.01697"
       y="436.60559"
       width="262.34634"
       height="102.44912"
       id="rect2538-3-2-4" />
    <rect
       x="281.01697"
       y="436.60559"
       width="262.34634"
       height="102.44912"
       id="rect2538-0" />
    <linearGradient
       xlink:href="#linearGradient1684"
       id="linearGradient6776"
       gradientUnits="userSpaceOnUse"
       gradientTransform="matrix(0.29305257,0,0,0.29305257,484.1871,114.06309)"
       x1="156.20265"
       y1="141.51387"
       x2="75.235222"
       y2="59.471653" />
    <linearGradient
       xlink:href="#linearGradient1690"
       id="linearGradient6778"
       gradientUnits="userSpaceOnUse"
       gradientTransform="matrix(0.29305257,0,0,0.29305257,484.1871,114.06309)"
       x1="21.496025"
       y1="97.0895"
       x2="127.89988"
       y2="205.64293" />
  </defs>
  <g
     id="layer1"
     transform="translate(-495.21104,-134.43113)">
    <text
       xml:space="preserve"
       transform="scale(0.26458333)"
       id="text2592"
       style="font-style:normal;font-variant:normal;font-weight:bold;font-stretch:normal;font-size:32px;line-height:normal;font-family:Arial;-inkscape-font-specification:'Arial Bold';text-decoration-color:#000000;white-space:pre;shape-inside:url(#rect2594);display:inline;fill:#577300;fill-opacity:1;stroke:none;stroke-width:9.08976;stroke-linecap:square;stroke-linejoin:round;stroke-miterlimit:0;stroke-opacity:1;paint-order:stroke markers fill;stop-color:#000000" />
    <text
       xml:space="preserve"
       transform="scale(0.26458333)"
       id="text3376"
       style="font-style:normal;font-variant:normal;font-weight:bold;font-stretch:normal;font-size:32px;line-height:normal;font-family:Arial;-inkscape-font-specification:'Arial Bold';text-decoration-color:#000000;white-space:pre;shape-inside:url(#rect3378);display:inline;fill:#6c8e00;fill-opacity:1;stroke:none;stroke-width:9.08976;stroke-linecap:square;stroke-linejoin:round;stroke-miterlimit:0;stroke-opacity:1;paint-order:stroke markers fill;stop-color:#000000" />
    <g
       id="g6952">
      <path
         d="m 537.32346,165.76106 v -21.1342 h 4.20771 v 17.544 h 10.46242 v 3.5902 z"
         style="font-weight:bold;font-size:32px;font-family:Arial;-inkscape-font-specification:'Arial Bold';white-space:pre;fill:#6c8e00;stroke-width:8.3622;stroke-linecap:square;stroke-linejoin:round;stroke-miterlimit:0;paint-order:stroke markers fill"
         id="path3810-0-7" />
      <path
         d="m 554.86507,165.76106 v -13.95408 h 4.20772 v 13.95408 z"
         style="font-weight:bold;font-size:32px;font-family:Arial;-inkscape-font-specification:'Arial Bold';white-space:pre;fill:#6c8e00;stroke-width:6.76695;stroke-linecap:square;stroke-linejoin:round;stroke-miterlimit:0;paint-order:stroke markers fill"
         id="path3812-9-5" />
      <path
         d="m 563.09571,165.76106 v -21.30863 h 8.85609 q 3.34059,0 4.8474,0.58141 1.52103,0.56688 2.4308,2.03493 0.90978,1.46806 0.90978,3.35764 0,2.39831 -1.37887,3.96811 -1.37889,1.55527 -4.12243,1.96226 1.36467,0.81397 2.24601,1.78782 0.89556,0.97387 2.40238,3.45939 l 2.54453,4.15707 h -5.0322 l -3.04206,-4.63673 q -1.62054,-2.48553 -2.21758,-3.12508 -0.59704,-0.65408 -1.26516,-0.88664 -0.66811,-0.2471 -2.11807,-0.2471 h -0.85291 v 8.89555 z m 4.20771,-12.29679 h 3.11313 q 3.02785,0 3.78126,-0.26164 0.75341,-0.26163 1.17987,-0.90118 0.42645,-0.63955 0.42645,-1.59887 0,-1.07561 -0.56861,-1.72969 -0.55439,-0.66862 -1.57789,-0.84304 -0.51175,-0.0727 -3.0705,-0.0727 h -3.28371 z"
         style="font-weight:bold;font-size:32px;font-family:Arial;-inkscape-font-specification:'Arial Bold';white-space:pre;fill:#6c8e00;stroke-width:8.3622;stroke-linecap:square;stroke-linejoin:round;stroke-miterlimit:0;paint-order:stroke markers fill"
         id="path3814-2-9" />
      <path
         d="m 602.89839,165.76106 h -4.57731 l -1.81955,-4.84022 h -8.33013 l -1.72005,4.84022 h -4.46359 l 8.11691,-21.30863 h 4.44937 z m -7.74731,-8.43043 -2.87148,-7.90715 -2.81462,7.90715 z"
         style="font-weight:bold;font-size:32px;font-family:Arial;-inkscape-font-specification:'Arial Bold';white-space:pre;fill:#6c8e00;stroke-width:8.3622;stroke-linecap:square;stroke-linejoin:round;stroke-miterlimit:0;paint-order:stroke markers fill"
         id="path3816-4-0" />
      <path
         d="m 607.93059,165.76106 v -8.96823 l -7.63359,-12.3404 h 4.93269 l 4.90426,8.43043 4.80475,-8.43043 h 4.8474 l -7.66202,12.36947 v 8.93916 z"
         style="font-weight:bold;font-size:32px;font-family:Arial;-inkscape-font-specification:'Arial Bold';white-space:pre;fill:#6c8e00;stroke-width:8.3622;stroke-linecap:square;stroke-linejoin:round;stroke-miterlimit:0;paint-order:stroke markers fill"
         id="path3818-5-9" />
      <path
         d="m 620.8096,158.82776 4.09399,-0.40698 q 0.3696,2.1076 1.4926,3.09599 1.13722,0.9884 3.05628,0.9884 2.03278,0 3.05627,-0.87211 1.03772,-0.88665 1.03772,-2.064 0,-0.75584 -0.44067,-1.2791 -0.42646,-0.5378 -1.50682,-0.93026 -0.73919,-0.26163 -3.36901,-0.93025 -3.38323,-0.85757 -4.74789,-2.1076 -1.91906,-1.75877 -1.91906,-4.28789 0,-1.62795 0.89556,-3.03786 0.90978,-1.42445 2.60139,-2.16575 1.70583,-0.74129 4.10821,-0.74129 3.9234,0 5.89932,1.75875 1.99013,1.75877 2.08964,4.69488 l -4.20771,0.18896 q -0.27009,-1.64248 -1.16565,-2.35471 -0.88134,-0.72676 -2.65825,-0.72676 -1.83377,0 -2.87148,0.77037 -0.66812,0.4942 -0.66812,1.3227 0,0.75583 0.62548,1.29364 0.79605,0.68315 3.86654,1.42445 3.0705,0.74129 4.53466,1.54073 1.47839,0.7849 2.30287,2.16575 0.83871,1.36631 0.83871,3.38671 0,1.83143 -0.99507,3.43031 -0.99507,1.59887 -2.81462,2.38377 -1.81955,0.77036 -4.53467,0.77036 -3.95184,0 -6.0699,-1.86051 -2.11808,-1.87503 -2.53032,-5.4507 z"
         style="font-weight:bold;font-size:32px;font-family:Arial;-inkscape-font-specification:'Arial Bold';white-space:pre;fill:#6c8e00;stroke-width:8.3622;stroke-linecap:square;stroke-linejoin:round;stroke-miterlimit:0;paint-order:stroke markers fill"
         id="path3820-9-7" />
      <ellipse
         style="fill:#6c8e00;fill-opacity:1;stroke:none;stroke-width:2.89167;stroke-linecap:square;stroke-linejoin:round;stroke-miterlimit:0;stroke-opacity:1;paint-order:stroke markers fill;stop-color:#000000"
         id="path3971-7-3"
         cx="556.96893"
         cy="146.53922"
         rx="2.5295885"
         ry="2.4501693" />
      <path
         id="rect184-1-2-6"
         style="fill:url(#linearGradient6776);fill-opacity:1;stroke:none;stroke-width:0.704791;stroke-linecap:square;stroke-linejoin:round;stroke-miterlimit:0;stroke-opacity:1;paint-order:stroke markers fill;stop-color:#000000"
         d="m 522.5084,134.43113 -27.29729,7e-5 31.70777,31.70777 2.73591,-21.80019 0.3079,-2.45336 z" />
      <path
         id="rect186-42-5"
         style="fill:#9fb600;fill-opacity:1;stroke:none;stroke-width:1.15203;stroke-linecap:square;stroke-linejoin:round;stroke-miterlimit:0;stroke-opacity:1;paint-order:stroke markers fill;stop-color:#000000"
         d="m 496.75971,135.9798 8.2071,8.2071 24.99594,-2.30142 -11.38896,-7.45428 z" />
      <path
         id="rect186-5-9-5"
         style="fill:url(#linearGradient6778);fill-opacity:1;stroke:none;stroke-width:1.15203;stroke-linecap:square;stroke-linejoin:round;stroke-miterlimit:0;stroke-opacity:1;paint-order:stroke markers fill;stop-color:#000000"
         d="m 495.21104,161.72849 7.45429,7.45429 24.25355,-3.04381 -31.70777,-31.70777 z" />
      <path
         id="rect184-9-4"
         style="fill:#577300;fill-opacity:1;stroke:none;stroke-width:0.704791;stroke-linecap:square;stroke-linejoin:round;stroke-miterlimit:0;stroke-opacity:1;paint-order:stroke markers fill;stop-color:#000000"
         d="m 496.75971,135.9798 -1.5486,21.96256 7.45429,11.24048 2.30141,-24.99594 v 0 z" />
    </g>
  </g>
</svg>
